<svg xmlns="http://www.w3.org/2000/svg">
    <symbol id="map-pin" viewBox="0 0 24 24">
        <path d="M0 0h24v24H0z" fill="none"/>
        <path d="M12 12c-1.1 0-2-.9-2-2s.9-2 2-2 2 .9 2 2-.9 2-2 2zm6-1.8C18 6.57 15.35 4 12 4s-6 2.57-6 6.2c0 2.34 1.95 5.44 6 9.14 4.05-3.7 6-6.8 6-9.14zM12 2c4.2 0 8 3.22 8 8.2 0 3.32-2.67 7.25-8 11.8-5.33-4.55-8-8.48-8-11.8C4 5.22 7.8 2 12 2z"/>
    </symbol>
    <symbol id="mobile" viewBox="0 0 24 24">
        <path d="M0 0h24v24H0V0z" fill="none"/>
        <path d="M15.5 1h-8C6.12 1 5 2.12 5 3.5v17C5 21.88 6.12 23 7.5 23h8c1.38 0 2.5-1.12 2.5-2.5v-17C18 2.12 16.88 1 15.5 1zm-4 21c-.83 0-1.5-.67-1.5-1.5s.67-1.5 1.5-1.5 1.5.67 1.5 1.5-.67 1.5-1.5 1.5zm4.5-4H7V4h9v14z"/>
    </symbol>
    <symbol id="phone" viewBox="0 0 24 24">
        <rect fill="none" height="24" width="24"/>
        <path d="M17.46,5c-0.06,0.89-0.21,1.76-0.45,2.59l1.2,1.2c0.41-1.2,0.67-2.47,0.76-3.79H17.46z M7.6,17.02 c-0.85,0.24-1.72,0.39-2.6,0.45v1.49c1.32-0.09,2.59-0.35,3.8-0.75L7.6,17.02z M16.5,3H20c0.55,0,1,0.45,1,1c0,9.39-7.61,17-17,17 c-0.55,0-1-0.45-1-1v-3.49c0-0.55,0.45-1,1-1c1.24,0,2.45-0.2,3.57-0.57c0.1-0.04,0.21-0.05,0.31-0.05c0.26,0,0.51,0.1,0.71,0.29 l2.2,2.2c2.83-1.45,5.15-3.76,6.59-6.59l-2.2-2.2c-0.28-0.28-0.36-0.67-0.25-1.02C15.3,6.45,15.5,5.25,15.5,4 C15.5,3.45,15.95,3,16.5,3z"/>
    </symbol>
    <symbol id="hourglass" viewBox="0 0 24 24">
        <rect fill="none" height="24" width="24"/>
        <path d="M22,10v8h-2v-8H22z M20,20v2h2v-2H20z M18,17.29C16.53,18.95,14.39,20,12,20c-4.41,0-8-3.59-8-8c0-4.41,3.59-8,8-8v9 l7.55-7.55C17.72,3.34,15.02,2,12,2C6.48,2,2,6.48,2,12c0,5.52,4.48,10,10,10c2.25,0,4.33-0.74,6-2V17.29z"/>
    </symbol>
    <symbol id="check-circle" viewBox="0 0 24 24">
        <rect fill="none" height="24" width="24"/>
        <path d="M22,5.18L10.59,16.6l-4.24-4.24l1.41-1.41l2.83,2.83l10-10L22,5.18z M19.79,10.22C19.92,10.79,20,11.39,20,12 c0,4.42-3.58,8-8,8s-8-3.58-8-8c0-4.42,3.58-8,8-8c1.58,0,3.04,0.46,4.28,1.25l1.44-1.44C16.1,2.67,14.13,2,12,2C6.48,2,2,6.48,2,12 c0,5.52,4.48,10,10,10s10-4.48,10-10c0-1.19-0.22-2.33-0.6-3.39L19.79,10.22z"/>
    </symbol>
    <symbol id="user-circle" viewBox="0 0 24 24">
        <path d="M0 0h24v24H0V0z" fill="none"/>
        <path d="M12 2C6.48 2 2 6.48 2 12s4.48 10 10 10 10-4.48 10-10S17.52 2 12 2zM7.07 18.28c.43-.9 3.05-1.78 4.93-1.78s4.51.88 4.93 1.78C15.57 19.36 13.86 20 12 20s-3.57-.64-4.93-1.72zm11.29-1.45c-1.43-1.74-4.9-2.33-6.36-2.33s-4.93.59-6.36 2.33C4.62 15.49 4 13.82 4 12c0-4.41 3.59-8 8-8s8 3.59 8 8c0 1.82-.62 3.49-1.64 4.83zM12 6c-1.94 0-3.5 1.56-3.5 3.5S10.06 13 12 13s3.5-1.56 3.5-3.5S13.94 6 12 6zm0 5c-.83 0-1.5-.67-1.5-1.5S11.17 8 12 8s1.5.67 1.5 1.5S12.83 11 12 11z"/>
    </symbol>
    <symbol id="fax" viewBox="0 0 24 24">
        <rect fill="none" height="24" width="24"/>
        <path d="M19,9h-1V4H8v5H7.22C6.67,8.39,5.89,8,5,8c-1.66,0-3,1.34-3,3v7c0,1.66,1.34,3,3,3c0.89,0,1.67-0.39,2.22-1H22v-8 C22,10.34,20.66,9,19,9z M6,18c0,0.55-0.45,1-1,1s-1-0.45-1-1v-7c0-0.55,0.45-1,1-1s1,0.45,1,1V18z M10,6h6v3h-6V6z M20,18H8v-7 h11c0.55,0,1,0.45,1,1V18z"/>
        <circle cx="15" cy="13" r="1"/>
        <circle cx="18" cy="13" r="1"/>
        <circle cx="15" cy="16" r="1"/>
        <circle cx="18" cy="16" r="1"/>
        <rect height="5" width="4" x="9" y="12"/>
    </symbol>
    <symbol id="eye" viewBox="0 0 16 16">
        <path d="M10.5 8a2.5 2.5 0 1 1-5 0 2.5 2.5 0 0 1 5 0z"/>
        <path d="M0 8s3-5.5 8-5.5S16 8 16 8s-3 5.5-8 5.5S0 8 0 8zm8 3.5a3.5 3.5 0 1 0 0-7 3.5 3.5 0 0 0 0 7z"/>
    </symbol>
    <symbol id="cart" viewBox="0 0 16 16">
        <path d="M8 1a2.5 2.5 0 0 1 2.5 2.5V4h-5v-.5A2.5 2.5 0 0 1 8 1zm3.5 3v-.5a3.5 3.5 0 1 0-7 0V4H1v10a2 2 0 0 0 2 2h10a2 2 0 0 0 2-2V4h-3.5zM2 5h12v9a1 1 0 0 1-1 1H3a1 1 0 0 1-1-1V5z"/>
    </symbol>
    <symbol id="user" viewBox="0 0 16 16">
        <path d="M8 8a3 3 0 1 0 0-6 3 3 0 0 0 0 6zm2-3a2 2 0 1 1-4 0 2 2 0 0 1 4 0zm4 8c0 1-1 1-1 1H3s-1 0-1-1 1-4 6-4 6 3 6 4zm-1-.004c-.001-.246-.154-.986-.832-1.664C11.516 10.68 10.289 10 8 10c-2.29 0-3.516.68-4.168 1.332-.678.678-.83 1.418-.832 1.664h10z"/>
    </symbol>
    <symbol id="search" viewBox="0 0 16 16">
        <path d="M11.742 10.344a6.5 6.5 0 1 0-1.397 1.398h-.001c.03.04.062.078.098.115l3.85 3.85a1 1 0 0 0 1.415-1.414l-3.85-3.85a1.007 1.007 0 0 0-.115-.1zM12 6.5a5.5 5.5 0 1 1-11 0 5.5 5.5 0 0 1 11 0z"/>
    </symbol>
    <symbol id="instagram" viewBox="0 0 16 16">
        <path d="M8 0C5.829 0 5.556.01 4.703.048 3.85.088 3.269.222 2.76.42a3.917 3.917 0 0 0-1.417.923A3.927 3.927 0 0 0 .42 2.76C.222 3.268.087 3.85.048 4.7.01 5.555 0 5.827 0 8.001c0 2.172.01 2.444.048 3.297.04.852.174 1.433.372 1.942.205.526.478.972.923 1.417.444.445.89.719 1.416.923.51.198 1.09.333 1.942.372C5.555 15.99 5.827 16 8 16s2.444-.01 3.298-.048c.851-.04 1.434-.174 1.943-.372a3.916 3.916 0 0 0 1.416-.923c.445-.445.718-.891.923-1.417.197-.509.332-1.09.372-1.942C15.99 10.445 16 10.173 16 8s-.01-2.445-.048-3.299c-.04-.851-.175-1.433-.372-1.941a3.926 3.926 0 0 0-.923-1.417A3.911 3.911 0 0 0 13.24.42c-.51-.198-1.092-.333-1.943-.372C10.443.01 10.172 0 7.998 0h.003zm-.717 1.442h.718c2.136 0 2.389.007 3.232.046.78.035 1.204.166 1.486.275.373.145.64.319.92.599.28.28.453.546.598.92.11.281.24.705.275 1.485.039.843.047 1.096.047 3.231s-.008 2.389-.047 3.232c-.035.78-.166 1.203-.275 1.485a2.47 2.47 0 0 1-.599.919c-.28.28-.546.453-.92.598-.28.11-.704.24-1.485.276-.843.038-1.096.047-3.232.047s-2.39-.009-3.233-.047c-.78-.036-1.203-.166-1.485-.276a2.478 2.478 0 0 1-.92-.598 2.48 2.48 0 0 1-.6-.92c-.109-.281-.24-.705-.275-1.485-.038-.843-.046-1.096-.046-3.233 0-2.136.008-2.388.046-3.231.036-.78.166-1.204.276-1.486.145-.373.319-.64.599-.92.28-.28.546-.453.92-.598.282-.11.705-.24 1.485-.276.738-.034 1.024-.044 2.515-.045v.002zm4.988 1.328a.96.96 0 1 0 0 1.92.96.96 0 0 0 0-1.92zm-4.27 1.122a4.109 4.109 0 1 0 0 8.217 4.109 4.109 0 0 0 0-8.217zm0 1.441a2.667 2.667 0 1 1 0 5.334 2.667 2.667 0 0 1 0-5.334z"/>
    </symbol>
    <symbol id="facebook" viewBox="0 0 16 16">
        <path d="M16 8.049c0-4.446-3.582-8.05-8-8.05C3.58 0-.002 3.603-.002 8.05c0 4.017 2.926 7.347 6.75 7.951v-5.625h-2.03V8.05H6.75V6.275c0-2.017 1.195-3.131 3.022-3.131.876 0 1.791.157 1.791.157v1.98h-1.009c-.993 0-1.303.621-1.303 1.258v1.51h2.218l-.354 2.326H9.25V16c3.824-.604 6.75-3.934 6.75-7.951z"/>
    </symbol>
    <symbol id="whatsapp" viewBox="0 0 16 16">
        <path d="M13.601 2.326A7.854 7.854 0 0 0 7.994 0C3.627 0 .068 3.558.064 7.926c0 1.399.366 2.76 1.057 3.965L0 16l4.204-1.102a7.933 7.933 0 0 0 3.79.965h.004c4.368 0 7.926-3.558 7.93-7.93A7.898 7.898 0 0 0 13.6 2.326zM7.994 14.521a6.573 6.573 0 0 1-3.356-.92l-.24-.144-2.494.654.666-2.433-.156-.251a6.56 6.56 0 0 1-1.007-3.505c0-3.626 2.957-6.584 6.591-6.584a6.56 6.56 0 0 1 4.66 1.931 6.557 6.557 0 0 1 1.928 4.66c-.004 3.639-2.961 6.592-6.592 6.592zm3.615-4.934c-.197-.099-1.17-.578-1.353-.646-.182-.065-.315-.099-.445.099-.133.197-.513.646-.627.775-.114.133-.232.148-.43.05-.197-.1-.836-.308-1.592-.985-.59-.525-.985-1.175-1.103-1.372-.114-.198-.011-.304.088-.403.087-.088.197-.232.296-.346.1-.114.133-.198.198-.33.065-.134.034-.248-.015-.347-.05-.099-.445-1.076-.612-1.47-.16-.389-.323-.335-.445-.34-.114-.007-.247-.007-.38-.007a.729.729 0 0 0-.529.247c-.182.198-.691.677-.691 1.654 0 .977.71 1.916.81 2.049.098.133 1.394 2.132 3.383 2.992.47.205.84.326 1.129.418.475.152.904.129 1.246.08.38-.058 1.171-.48 1.338-.943.164-.464.164-.86.114-.943-.049-.084-.182-.133-.38-.232z"/>
    </symbol>
    <symbol id="telegram" viewBox="0 0 16 16">
        <path d="M16 8A8 8 0 1 1 0 8a8 8 0 0 1 16 0zM8.287 5.906c-.778.324-2.334.994-4.666 2.01-.378.15-.577.298-.595.442-.03.243.275.339.69.47l.175.055c.408.133.958.288 1.243.294.26.006.549-.1.868-.32 2.179-1.471 3.304-2.214 3.374-2.23.05-.012.12-.026.166.016.047.041.042.12.037.141-.03.129-1.227 1.241-1.846 1.817-.193.18-.33.307-.358.336a8.154 8.154 0 0 1-.188.186c-.38.366-.664.64.015 1.088.327.216.589.393.85.571.284.194.568.387.936.629.093.06.183.125.27.187.331.236.63.448.997.414.214-.02.435-.22.547-.82.265-1.417.786-4.486.906-5.751a1.426 1.426 0 0 0-.013-.315.337.337 0 0 0-.114-.217.526.526 0 0 0-.31-.093c-.3.005-.763.166-2.984 1.09z"/>
    </symbol>
    <symbol id="linkedin" viewBox="0 0 16 16">
        <path d="M0 1.146C0 .513.526 0 1.175 0h13.65C15.474 0 16 .513 16 1.146v13.708c0 .633-.526 1.146-1.175 1.146H1.175C.526 16 0 15.487 0 14.854V1.146zm4.943 12.248V6.169H2.542v7.225h2.401zm-1.2-8.212c.837 0 1.358-.554 1.358-1.248-.015-.709-.52-1.248-1.342-1.248-.822 0-1.359.54-1.359 1.248 0 .694.521 1.248 1.327 1.248h.016zm4.908 8.212V9.359c0-.216.016-.432.08-.586.173-.431.568-.878 1.232-.878.869 0 1.216.662 1.216 1.634v3.865h2.401V9.25c0-2.22-1.184-3.252-2.764-3.252-1.274 0-1.845.7-2.165 1.193v.025h-.016a5.54 5.54 0 0 1 .016-.025V6.169h-2.4c.03.678 0 7.225 0 7.225h2.4z"/>
    </symbol>
    <symbol id="youtube" viewBox="0 0 16 16">
        <path d="M8.051 1.999h.089c.822.003 4.987.033 6.11.335a2.01 2.01 0 0 1 1.415 1.42c.101.38.172.883.22 1.402l.01.104.022.26.008.104c.065.914.073 1.77.074 1.957v.075c-.001.194-.01 1.108-.082 2.06l-.008.105-.009.104c-.05.572-.124 1.14-.235 1.558a2.007 2.007 0 0 1-1.415 1.42c-1.16.312-5.569.334-6.18.335h-.142c-.309 0-1.587-.006-2.927-.052l-.17-.006-.087-.004-.171-.007-.171-.007c-1.11-.049-2.167-.128-2.654-.26a2.007 2.007 0 0 1-1.415-1.419c-.111-.417-.185-.986-.235-1.558L.09 9.82l-.008-.104A31.4 31.4 0 0 1 0 7.68v-.123c.002-.215.01-.958.064-1.778l.007-.103.003-.052.008-.104.022-.26.01-.104c.048-.519.119-1.023.22-1.402a2.007 2.007 0 0 1 1.415-1.42c.487-.13 1.544-.21 2.654-.26l.17-.007.172-.006.086-.003.171-.007A99.788 99.788 0 0 1 7.858 2h.193zM6.4 5.209v4.818l4.157-2.408L6.4 5.209z"/>
    </symbol>
    <symbol id="twitter" viewBox="0 0 16 16">
        <path d="M5.026 15c6.038 0 9.341-5.003 9.341-9.334 0-.14 0-.282-.006-.422A6.685 6.685 0 0 0 16 3.542a6.658 6.658 0 0 1-1.889.518 3.301 3.301 0 0 0 1.447-1.817 6.533 6.533 0 0 1-2.087.793A3.286 3.286 0 0 0 7.875 6.03a9.325 9.325 0 0 1-6.767-3.429 3.289 3.289 0 0 0 1.018 4.382A3.323 3.323 0 0 1 .64 6.575v.045a3.288 3.288 0 0 0 2.632 3.218 3.203 3.203 0 0 1-.865.115 3.23 3.23 0 0 1-.614-.057 3.283 3.283 0 0 0 3.067 2.277A6.588 6.588 0 0 1 .78 13.58a6.32 6.32 0 0 1-.78-.045A9.344 9.344 0 0 0 5.026 15z"/>
    </symbol>
    <symbol id="trash" viewBox="0 0 16 16">
        <path d="M5.5 5.5A.5.5 0 0 1 6 6v6a.5.5 0 0 1-1 0V6a.5.5 0 0 1 .5-.5zm2.5 0a.5.5 0 0 1 .5.5v6a.5.5 0 0 1-1 0V6a.5.5 0 0 1 .5-.5zm3 .5a.5.5 0 0 0-1 0v6a.5.5 0 0 0 1 0V6z"/>
        <path fill-rule="evenodd" d="M14.5 3a1 1 0 0 1-1 1H13v9a2 2 0 0 1-2 2H5a2 2 0 0 1-2-2V4h-.5a1 1 0 0 1-1-1V2a1 1 0 0 1 1-1H6a1 1 0 0 1 1-1h2a1 1 0 0 1 1 1h3.5a1 1 0 0 1 1 1v1zM4.118 4 4 4.059V13a1 1 0 0 0 1 1h6a1 1 0 0 0 1-1V4.059L11.882 4H4.118zM2.5 3V2h11v1h-11z"/>
    </symbol>
    <symbol id="menu" viewBox="0 0 16 16">
        <path fill-rule="evenodd" d="M2.5 12a.5.5 0 0 1 .5-.5h10a.5.5 0 0 1 0 1H3a.5.5 0 0 1-.5-.5zm0-4a.5.5 0 0 1 .5-.5h10a.5.5 0 0 1 0 1H3a.5.5 0 0 1-.5-.5zm0-4a.5.5 0 0 1 .5-.5h10a.5.5 0 0 1 0 1H3a.5.5 0 0 1-.5-.5z"/>
    </symbol>
    <symbol id="leaf" viewBox="0 0 350 160">
        <path d="M320.44,135.22A26,26,0,0,0,318.92,125a32.66,32.66,0,0,1,13.44,1,1.16,1.16,0,0,0,1.29-.5c2.4-3.39-4.09-7.76-6.37-9.37a30.84,30.84,0,0,0-12.88-5.19c10.86-1.36,17.76-5.06,26.41-9.72a5.12,5.12,0,1,0-1-3,5.22,5.22,0,0,0,.36,1.9c-7.05,3.62-12.84,6.52-21.5,7.81a17,17,0,0,0,5.52-4.3c3.49-4.33,3.36-10,3.07-15.3a1.46,1.46,0,0,0-2.44-1.1c-4.89,4.3-11.93,6.64-15.41,12.47a10.2,10.2,0,0,0-1,9c-14.52,0-29.63-4-43.31-7.46A69.78,69.78,0,0,0,287,91.67a15.45,15.45,0,0,0,14.21,4.8,1.56,1.56,0,0,0,1.22-2,1.37,1.37,0,0,0,.45-1.73,6.6,6.6,0,0,0-.93-1.32l.89-.2a1.51,1.51,0,0,0,.44-2.73,36.4,36.4,0,0,0-6.73-2.84c1.32-1.51,3.53-3.17,1.42-5.05-1.71-1.54-4.88.13-7.11,1.36a12.11,12.11,0,0,0-2.05-4.17l-1.07-1.42c-.1.1-1.21,1.48-1.31,1.59-2.68,3-2.84,7.62-1.07,11.25a87.27,87.27,0,0,1-15.55,7.51,11.09,11.09,0,0,0,1.79-2c3-4.18,1.21-9.58,3.91-13.71a1.61,1.61,0,0,0-1.7-2.38c-9.57,1-18.22,10.6-16.56,20.47-10.8-2.71-21.56-5.61-32.36-8.34L211.8,87.68l-1.63-.38a68,68,0,0,0,20.32-7.8q3.44-1.94,6.94-4.3a22.14,22.14,0,0,1,11.44-3,13.38,13.38,0,0,1,5.79,1.43,4.47,4.47,0,1,0,6.49-2.55,4.43,4.43,0,0,0-4.58.08,16.22,16.22,0,0,0-7.62-2,22.42,22.42,0,0,0-3.49.19,183.48,183.48,0,0,0,19.79-18.62A7,7,0,1,0,263,48.58c-11.9,12.83-23.25,22.19-34,28.22-10.26,5.77-19.93,8.5-28.94,8.32l-.39-.08c-17-3.36-34.38-5.43-51.53-4.68a163.09,163.09,0,0,0,17.64-7.76,1.58,1.58,0,0,0,.44,2.11c11.59,8.18,26.74,1.56,36.67-6a1.54,1.54,0,0,0-.61-2.58,40.65,40.65,0,0,0-27.7,1.35c2.48-1.57,4.9-3.22,7.22-5,8.72-4.38,17.42-6.76,27.19-6.12a4.81,4.81,0,1,0,0-2.9,49.7,49.7,0,0,0-19.92,2.75,82.39,82.39,0,0,0,8.71-9.86,18.42,18.42,0,0,0,15.87-2.11c6.34-4.3,9-12.12,15.85-15.85,1.11-.61,1.12-2.67-.29-2.93-7.53-1.41-16.05.26-22.13,5a89,89,0,0,0,3.48-9.07,31.08,31.08,0,0,0,7.84,1.14c2.19,0,5.15,0,6.61-2a4.38,4.38,0,0,0-.08-5c-1.2-1.79-3.25-2.33-5.27-2.48,2.13-2.38,5.26-5.12,2.38-7.9-2.47-2.39-6.1.3-8.65,2.32a10.82,10.82,0,0,0-2.54-7,1.77,1.77,0,0,0-2.46-.06,9.59,9.59,0,0,0-2.94,6.09,13.68,13.68,0,0,0-6.36-2.32,1.68,1.68,0,0,0-1.67,2,16.69,16.69,0,0,0,10,12.76c.88.39,1.55-1.1.69-1.55A13.63,13.63,0,0,1,201,8.29a13.52,13.52,0,0,1,5.8,4.52c1.24,1.61,4.11-.44,2.93-2.14a14.75,14.75,0,0,0-1.15-1.34,6.7,6.7,0,0,1,.79-4.63,14.14,14.14,0,0,1,.52,4.7c0,1.43,2.17,2.42,2.92.88v0c.05,0,.1,0,.15,0,1.33-.68,2.67-1.33,4-2.07a8.65,8.65,0,0,1,1.61-.88c1.18-.3,2.24.31,1.53,1.72-1.08,2.15-3.65,2.87-4.24,5.41a1.26,1.26,0,0,0,2.42.73,2.26,2.26,0,0,1,.13-.2,1.23,1.23,0,0,0,.77.43c1.33.19,3.68.65,3.9,2.35.29,2.23-3.86,1.87-5,1.82a25.17,25.17,0,0,1-7.71-1.63c-1.66-.63-2.63,1.56-1.72,2.67a85.92,85.92,0,0,1-16.52,25.06,26.89,26.89,0,0,0-4.83-23.47,1.77,1.77,0,0,0-2.51-.06c-7.65,8.49-7.06,24,.89,32.47C170.17,67.45,147.49,76.84,127,83.15c.52-4.39,18.33-27.63,21.86-31.76.2-.24.52-.7.52-.7,6.26,2.56,13-1,18.05-4.77a1.56,1.56,0,0,0,.59-1.76,1.72,1.72,0,0,0-.91-2.63,17.18,17.18,0,0,0-5.38-.22c.48-1.07.95-2.14,1.42-3.22.63-1.42-1.22-2.55-2.4-2-1.88,1-3.74,1.92-5.61,2.88.25-1.61.51-3.23.76-4.84.18-1.17-1.27-1.8-2.16-1.35a12.5,12.5,0,0,0-4.61,3.89c-.66-2.14-1.38-4.27-2.1-6.39a1.26,1.26,0,0,0-2.34-.17,1.13,1.13,0,0,0-1.28.73c-2,5.6-1.83,14.19,3.21,18.24a132.11,132.11,0,0,0-10.3,13.36c.09-.39.21-.76.28-1.16a26.48,26.48,0,0,0-1.71-14.53,1.56,1.56,0,0,0-2.11-.63c-9.73,6.76-14,20.61-8.11,31,0,0,1.24,5.64-1.42,7.44-6.81,1.93-22.82,6.89-29.64,8.8,1.56-2.11,6-8.86,6.51-11.47.83-4.4-.48-9.57,3.13-13,1.3-1.24.11-3.8-1.73-3.24C88.9,69.54,73.13,78.63,78.89,97.44c-5.34,1.71-10.62,3.46-15.77,5.35a32.11,32.11,0,0,0-3.46,1.29C33.75,114,11.3,127.84.15,157.38c-1,2.59,3,3.72,4.06,1.23,7.75-18.9,20.37-31.68,35.7-41.05a164.68,164.68,0,0,1,25.73-12.28c6.59-1.68,13.7-1.2,21.25,1.54,2.07,1,3.79,3.07,5.14,6.31a40.14,40.14,0,0,1,2.44,9.57,5.3,5.3,0,1,0,3.06-.35,43.61,43.61,0,0,0-2.65-10.41c-.3-.7-.61-1.36-.94-2,8.66,4.57,17.86,11.91,27.52,22.16a7,7,0,1,0,5.73-3,6.91,6.91,0,0,0-3.45.91c-12.19-12.95-23.74-21.41-34.49-25.63a45.35,45.35,0,0,0-12.18-3c2.43-.76,4.6-1.41,6.46-2,13-3.91,26.49-7.25,39.62-11a23.41,23.41,0,0,0,12.71,16.3,22.29,22.29,0,0,0,9.71,2.34c5.16,0,10.89-2.86,15.42.72,1.11.88,3.08-.5,2.57-1.85-5-13.54-15.32-18.25-27.88-20.71a202.2,202.2,0,0,1,43.86.69s0,0,0,0c.3.22.57.47.88.69-5.1,2.12-6.77,8-6.38,13.45.6,8.47,4.88,15.87,11.21,21.34,1.06.91,3,.49,3-1.14,0-3.87,3-6.62,3.7-10.27a16.82,16.82,0,0,0-.8-8.2,31.79,31.79,0,0,0-4.83-10.22,63.4,63.4,0,0,1,19.84,34.22,1.46,1.46,0,0,0,1,1.15c-5.52.45-10.2,4.79-12.74,9.72a1.34,1.34,0,0,0,.3,1.6,1.43,1.43,0,0,0,1.41,1.5,16.79,16.79,0,0,0,4.57-.82,14.39,14.39,0,0,0,.4,4.18,1.57,1.57,0,0,0,2.59.78,14.37,14.37,0,0,0,2.57-3.91,33.39,33.39,0,0,0,3.78,3.84,1.53,1.53,0,0,0,2.6-1,17.38,17.38,0,0,0-.28-4.53,30.52,30.52,0,0,0,6.86,3.07,1,1,0,0,0,1.19-1,1.64,1.64,0,0,0,.6-1.25c.23-5.78-4.95-10.78-10.3-12a12,12,0,0,0-2.35-.28,1.52,1.52,0,0,0,1-1.8,68.78,68.78,0,0,0-3.12-10.33,21,21,0,0,0,1.82,1.41c5.72,3.71,12.21,3.12,18.52,5,1,.31,2.42-.71,2-1.87-4.38-12-16.16-23.36-29.61-18.1a58.13,58.13,0,0,0-14.87-14.76c17,2.29,34.07,6.18,51.27,10.58.36,6,1.73,12.26,5.57,17.06,5,6.2,14.14,6.46,18.64,12.87.92,1.32,3.42,1.2,3.39-.79-.18-10.21-5.15-20-13.54-25.35,14.48,4.09,30.54,8.81,46.18,10.26,0,0,0,0,0,.06a17,17,0,0,0,4.23,15c4.81,5,14.67,3.79,18.07,9.73a1.37,1.37,0,0,0,2.55-.6Zm25.83-13.31a2.07,2.07,0,1,1,2.06-2.07,2.07,2.07,0,0,1-2.06,2.07Zm-60.67,5a4.27,4.27,0,1,1,4.24-4.27A4.27,4.27,0,0,1,285.6,127Zm50.19-12.43a3.26,3.26,0,1,1,3.25-3.26,3.26,3.26,0,0,1-3.25,3.26ZM265.94,62.46a3.35,3.35,0,1,1,3.33-3.34,3.34,3.34,0,0,1-3.33,3.34ZM252.82,50.27a4,4,0,1,1,4-4,4,4,0,0,1-4,4Zm-113,86a2.45,2.45,0,1,1-2.44,2.45,2.45,2.45,0,0,1,2.44-2.45Zm58.33-68h0c-8.08,5.22-16.27,7.34-25.27,5.27,3-.51,6-.78,8.89-1.11,1.33-.16.84-2.16-.47-2-3.59.36-7.32,1.06-11,1.31,8.91-4.2,18.3-5.64,27.85-3.44ZM186.48,39.33h0a1.42,1.42,0,0,0-2.83-.1,50.21,50.21,0,0,0,.49,8.07,20.83,20.83,0,0,1,1.77-20.83,23.65,23.65,0,0,1,1.52,23.42,44.57,44.57,0,0,1-1-10.56ZM210.9,38h0c1.42-1,.27-3.29-1.29-2.41-2.53,1.4-5,2.9-7.48,4.41.25-.4.49-.83.73-1.24,5.85-6.5,12.8-10.94,21.54-10.6-7.65,6.42-11.93,17.16-22.91,15.85,3.16-2,6.33-3.92,9.41-6Zm-60.81,8.65h0c-4.42-2.21-4.79-7.76-4.64-12.5.56,2.15,1.15,4.29,1.89,6.38a1.41,1.41,0,0,0,2.7.09,9.61,9.61,0,0,1,2.39-3.36c-.23,1.36-.47,2.71-.7,4.07a1.55,1.55,0,0,0,2.18,1.79c1.42-.64,2.82-1.33,4.23-2l-.76,1.67c-.55,1.22.28,3,1.85,2.59a14.67,14.67,0,0,1,2-.36c-3.54,1.92-7.45,3.48-11.17,1.63Zm-17.21,3.67h0a31.77,31.77,0,0,1,.56,16.24c-1.29,1.8-2.6,3.57-4,5.28.26-3.83.57-7.65,1.09-11.46.22-1.53-2.2-1.62-2.39-.09a116.25,116.25,0,0,0-1,14.2,2.09,2.09,0,0,0-.14.17c-2.81-8.91-1.33-17.56,5.8-24.34ZM89.21,80.85h0C86.32,84.93,83.4,89,80.62,93.14c-.73-11,7.64-18.09,17.22-22.07a40.94,40.94,0,0,0-.89,7.8C96.6,83.62,93.46,91.15,90.14,94c-2.76.8-6.47,2.11-9.2,2.94,2.86-3.62,7.56-11.13,10.35-14.81.93-1.24-1.17-2.56-2.08-1.28Zm69.24,22h0c-4-.81-8.38.71-12.75.7-9,0-16.46-6.33-19.28-14.5A87.89,87.89,0,0,0,141,95.48c1.59.53,2.33-2,.75-2.49a76.88,76.88,0,0,1-13.53-6l1-.29a.94.94,0,0,0,.23.1c12,2.6,23.07,5.13,29,16.1Zm51.2,28h0c3.9.76,6.16,3.58,7.4,7a72.65,72.65,0,0,1-6.47-4c-1.28-.93-2.5.73-2,1.92a15.32,15.32,0,0,1,1,3.39,32.27,32.27,0,0,1-2.44-3c-.68-.95-2.49-1.17-2.81.29-.06.28-.19.49-.26.75v0a1.59,1.59,0,0,0-2.23-1.84,17.6,17.6,0,0,1-3.49,1.06c3.1-3.22,6.55-6.47,11.36-5.53Zm14.69-13.45h0c-3.79-.7-7.7-.92-11.29-2.32a22.42,22.42,0,0,1-10.69-9c2.73,1.52,5.45,3.08,8.16,4.62,1,.57,1.92-.94.92-1.52-3.26-1.88-6.55-3.74-9.78-5.69,10.27-1.3,18.33,4.67,22.68,13.87Zm-39-14.13h0a95.07,95.07,0,0,1-2.34-11c3.39,3.61,5.45,9.66,5.7,14.11.21,3.86-2.07,6.81-3.22,10.18-6-6.84-12.42-20-5.55-26.53a60.2,60.2,0,0,0,2.91,13.78c.54,1.52,2.94,1.06,2.5-.58Zm73.67,18h0a44.6,44.6,0,0,0-7.64-4.4c-6-3-9-7.45-10.81-12.92,2.38,2.9,4.79,5.77,7.34,8.51,1.18,1.27,2.9-.5,1.9-1.82-3.16-4.21-6.46-8.31-9.68-12.46l.77,1c9.34,4.45,16.46,12.11,18.12,22.09Zm6-29.67h0c-1.75,2.14-3.41,4.34-5.08,6.53.62-7.2,4.67-13.55,11.59-15.71-.55,2.11-.62,4.28-1.07,6.57-.75,3.79-3.3,6.14-6.36,7.88.95-1.24,1.91-2.46,2.82-3.73s-1-2.63-1.9-1.54Zm22.87-11h0a12.45,12.45,0,0,1,.61,3.4,1.39,1.39,0,0,0,2,1.26,30.35,30.35,0,0,1,4-1.62c0-.32-1.52,2.33-1.54,2.41a1.46,1.46,0,0,0,1,1.81,37.57,37.57,0,0,1,4.11,1.42l-.84.2a1.47,1.47,0,0,0,.27,2.89,4.49,4.49,0,0,1,1.86.61c-3.59-.28-7.15-.8-9.7-3.74a2.2,2.2,0,0,0-.14-.18,1.51,1.51,0,0,0-.88-1.29,9.2,9.2,0,0,1-.75-7.17Zm22.27,30.7c1.83-.18,17.48,6.28,19.74,9.91a16.6,16.6,0,0,1,1.82,2.11l-1.31-.39c-1.3,0-3-.71-4.34-.89a31.5,31.5,0,0,0-8.4.07,25.81,25.81,0,0,0-3.19-4.84,72.5,72.5,0,0,0,7.21,3.5c1.14.47,1.67-.88.65-1.5-4.78-2.9-10-5.4-15-7.82.93,0,1.87-.09,2.8-.15Zm.67-6.56h0c.68-6.19,8-11.13,13.65-14.19.11,4-.15,8.06-2.75,11.24s-6,4.33-9.55,5.55c2-3.26,4.21-6,8.05-7.91.75-.38.14-1.42-.61-1.13a20.44,20.44,0,0,0-8.79,6.44Zm.49,23.69h0c-7-2.28-12.39-6.22-12.76-13.37a68,68,0,0,1,7.53,8.66c.9,1.22,3-.29,2.16-1.57A53.4,53.4,0,0,0,299.87,112c9.6,2.9,16.71,9.2,17.73,19.5A19.23,19.23,0,0,0,311.32,128.45Z" transform="translate(0 0)"/>
    </symbol>
    <symbol id="woshe" viewBox="0 0 446.46 54.73">
        <path d="M47,43.27,60.12.65h3.93L47.28,54.73,32.15,15.13l-15.3,39.6L0,.65H3.84L17.18,43.44l15-38.61L47,43.27Zm92.5,11.13A26.25,26.25,0,0,0,153,50.72a25.91,25.91,0,0,0,9.81-9.9,26.89,26.89,0,0,0,3.6-13.58,27.18,27.18,0,0,0-3.6-13.66A26.55,26.55,0,0,0,153,3.68a27.11,27.11,0,0,0-27,0,26.65,26.65,0,0,0-9.82,9.9,27.27,27.27,0,0,0-3.59,13.66,27,27,0,0,0,3.59,13.58A27,27,0,0,0,139.45,54.4Zm0-50.56A22.89,22.89,0,0,1,151.06,7a23.94,23.94,0,0,1,8.43,8.51,23.44,23.44,0,0,1,3.11,11.78,22.93,22.93,0,0,1-3.11,11.7,22.73,22.73,0,0,1-8.43,8.51,22.74,22.74,0,0,1-23.23,0,22.77,22.77,0,0,1-8.42-8.51,22.24,22.24,0,0,1-3.19-11.7,22.72,22.72,0,0,1,3.19-11.78A24,24,0,0,1,127.83,7a23,23,0,0,1,11.62-3.11ZM250,28.06a16.58,16.58,0,0,1,5.89,5.15,11.77,11.77,0,0,1,.57,12.35,13.9,13.9,0,0,1-4.25,4.83,22.57,22.57,0,0,1-13.33,4.09,23.41,23.41,0,0,1-7.2-1.06,21.59,21.59,0,0,1-6.14-3A13.47,13.47,0,0,1,219.92,42l3.52-2a9.17,9.17,0,0,0,4.41,7.36,15.62,15.62,0,0,0,5,2.46,20.94,20.94,0,0,0,6.06.9,18.25,18.25,0,0,0,11-3.36c2.86-2.12,4.34-4.66,4.34-7.52a7.9,7.9,0,0,0-1.56-4.75,13.77,13.77,0,0,0-4.5-3.76c-1.8-.9-5-1.64-9.65-2.21-.41-.08-1.72-.24-4.09-.65a23.7,23.7,0,0,1-6.14-1.8,15.91,15.91,0,0,1-6.29-5.24,11.39,11.39,0,0,1-2.29-6.95,11,11,0,0,1,1.55-5.73,15.08,15.08,0,0,1,4.25-4.66,21.59,21.59,0,0,1,6.14-3A23.41,23.41,0,0,1,238.9,0a22.57,22.57,0,0,1,13.33,4.09,13.17,13.17,0,0,1,5.56,8.34l-3.51,2a8.48,8.48,0,0,0-1.15-3.93A12.61,12.61,0,0,0,249.94,7a17.33,17.33,0,0,0-5.07-2.53,22.14,22.14,0,0,0-11.94,0A15.51,15.51,0,0,0,227.85,7a13,13,0,0,0-3.27,3.44,8.13,8.13,0,0,0-1.14,4,8.24,8.24,0,0,0,1.88,5A12,12,0,0,0,230,23.4a13.93,13.93,0,0,0,3.85,1.14c1.39.25,3.1.57,5.31.82.41.08,1.31.16,2.87.41a34,34,0,0,1,4.41.9,16.71,16.71,0,0,1,3.6,1.39ZM349.8,53.83h3.68V.65H349.8V25.36H318.38V.65h-3.76V53.83h3.76V29.12H349.8V53.83Zm96.66,0V50H415.71V29.12h24V25.36h-24V4.42h30.75V.65H412V53.83Z"/>
    </symbol>
    <symbol id="floral" viewBox="0 0 308.37 26.61">
        <path d="M1.79,26.17v-12H13.48V12.33H1.79V2.15h15V.32H0V26.17ZM183.26,13.64a8.31,8.31,0,0,1,2.85,2.53,5.64,5.64,0,0,1,1,3.2,6,6,0,0,1-.71,2.81,7.09,7.09,0,0,1-2.07,2.32,10.86,10.86,0,0,1-6.49,2,12,12,0,0,1-3.5-.51,10.13,10.13,0,0,1-3-1.48,6.62,6.62,0,0,1-2.75-4.09l1.72-1A4.48,4.48,0,0,0,172.48,23a7.5,7.5,0,0,0,2.43,1.22,10.49,10.49,0,0,0,2.94.41A8.68,8.68,0,0,0,183.22,23a4.46,4.46,0,0,0,2.11-3.66,3.93,3.93,0,0,0-.77-2.31,6.5,6.5,0,0,0-2.17-1.83,15.51,15.51,0,0,0-4.7-1.07l-2-.32a10.42,10.42,0,0,1-3-.87,7.93,7.93,0,0,1-3.06-2.53A5.78,5.78,0,0,1,168.55,7a5.48,5.48,0,0,1,.73-2.76A7.29,7.29,0,0,1,171.37,2a9.88,9.88,0,0,1,3-1.47,11.63,11.63,0,0,1,3.5-.52,10.86,10.86,0,0,1,6.49,2A6.43,6.43,0,0,1,187,6.05l-1.71,1a4.07,4.07,0,0,0-.57-1.91,5.73,5.73,0,0,0-1.54-1.67,7.85,7.85,0,0,0-2.46-1.21,10,10,0,0,0-2.91-.42,10.21,10.21,0,0,0-2.92.42,7.49,7.49,0,0,0-2.45,1.21,5.74,5.74,0,0,0-1.59,1.69A3.73,3.73,0,0,0,170.34,7a4.05,4.05,0,0,0,.91,2.45,6.38,6.38,0,0,0,2.27,1.89,7.28,7.28,0,0,0,1.85.57c.67.12,1.54.25,2.6.38l1.4.2a18,18,0,0,1,2.14.44,7.62,7.62,0,0,1,1.75.67Zm112,12.81a12.8,12.8,0,0,0,6.57-1.77,13.18,13.18,0,0,0,6.52-11.43,13.18,13.18,0,0,0-6.52-11.44,13.06,13.06,0,0,0-13.13,0,13,13,0,0,0-4.78,4.81,13.13,13.13,0,0,0-1.74,6.63,13.12,13.12,0,0,0,1.74,6.62,13,13,0,0,0,4.78,4.81,12.74,12.74,0,0,0,6.56,1.77Zm0-24.58a10.87,10.87,0,0,1,5.65,1.53A11.3,11.3,0,0,1,305,7.54a11.13,11.13,0,0,1,1.51,5.71A11.12,11.12,0,0,1,305,19a11.3,11.3,0,0,1-4.1,4.14,11.2,11.2,0,0,1-11.3,0A11.49,11.49,0,0,1,285.52,19a11.05,11.05,0,0,1-1.54-5.7,11.06,11.06,0,0,1,1.54-5.71,11.49,11.49,0,0,1,4.11-4.14,10.92,10.92,0,0,1,5.65-1.53Zm-19.57,24.3V.32h-1.79V26.17Zm-20.8,0a12.64,12.64,0,0,0,5.09-1,11.65,11.65,0,0,0,4.06-2.92,13.25,13.25,0,0,0,2.5-4.14,13.55,13.55,0,0,0,.88-4.89,13.56,13.56,0,0,0-.88-4.9,12.8,12.8,0,0,0-2.5-4.09A11.83,11.83,0,0,0,260,1.33a12.81,12.81,0,0,0-5.09-1h-7.44V26.17Zm-5.65-24h5.65a10.2,10.2,0,0,1,7.83,3.3A10.41,10.41,0,0,1,264.87,9a12.6,12.6,0,0,1,0,8.51A10.41,10.41,0,0,1,262.74,21a10,10,0,0,1-7.83,3.38h-5.65V2.15Zm-18.94,24.3a9.59,9.59,0,0,0,3.82-.77,10.06,10.06,0,0,0,3.18-2.21,9.08,9.08,0,0,0,2.13-3.18,10.28,10.28,0,0,0,.74-3.86V.32H238.4V16.43a8.38,8.38,0,0,1-.62,3.18,8,8,0,0,1-1.73,2.63A8.18,8.18,0,0,1,233.42,24a7.94,7.94,0,0,1-3.1.61,7.85,7.85,0,0,1-3.06-.61,8.14,8.14,0,0,1-2.62-1.77,7.84,7.84,0,0,1-1.74-2.63,8.37,8.37,0,0,1-.61-3.18V.32H220.5V16.43a10.27,10.27,0,0,0,.73,3.86,9.08,9.08,0,0,0,2.13,3.18,10,10,0,0,0,3.2,2.21,9.58,9.58,0,0,0,3.76.77ZM214.69.32V2.15H204.47v24h-1.83v-24H192.37V.32Zm-67.9,25.85-10.74-13h3.18a12.53,12.53,0,0,0,4.77-.76,6.27,6.27,0,0,0,2.35-1.93,4.57,4.57,0,0,0,1-2.84A4.68,4.68,0,0,0,146.51,5a6.21,6.21,0,0,0-2.39-2.05,7.74,7.74,0,0,0-3.58-.79H133.3V26.17h-1.79V.32h9A9.83,9.83,0,0,1,144,.9a8.32,8.32,0,0,1,2.79,1.65,7.15,7.15,0,0,1,1.76,2.34,6.2,6.2,0,0,1,.62,2.71,6.25,6.25,0,0,1-1.31,3.91,7.5,7.5,0,0,1-3.1,2.49,8.5,8.5,0,0,1-2.41.7,21.72,21.72,0,0,1-2.49.14l9.35,11.33Zm-22.08,0V24.3h-15V14.16h11.66V12.33H109.75V2.15h15V.32H108V26.17ZM94,21,100.45.32h1.9L94.2,26.61,86.84,7.36,79.4,26.61,71.21.32h1.86l6.49,20.8L86.84,2.35,94,21ZM55.57,26.45a12.74,12.74,0,0,0,6.56-1.77,13.16,13.16,0,0,0,6.53-11.43A13.16,13.16,0,0,0,62.13,1.81,13,13,0,0,0,49,1.81a13,13,0,0,0-4.78,4.81,13.14,13.14,0,0,0-1.75,6.63,13.13,13.13,0,0,0,1.75,6.62A13,13,0,0,0,49,24.68a12.74,12.74,0,0,0,6.56,1.77Zm0-24.58A10.89,10.89,0,0,1,61.22,3.4a11.38,11.38,0,0,1,4.1,4.14,11.13,11.13,0,0,1,1.51,5.71A11.12,11.12,0,0,1,65.32,19a11.38,11.38,0,0,1-4.1,4.14,11.2,11.2,0,0,1-11.3,0A11.49,11.49,0,0,1,45.81,19a11,11,0,0,1-1.53-5.7,11.05,11.05,0,0,1,1.53-5.71A11.49,11.49,0,0,1,49.92,3.4a10.92,10.92,0,0,1,5.65-1.53ZM39.7,26.17V24.38H25.18V.32H23.39V26.17Z"/>
    </symbol>
    <symbol id="logoFull" viewBox="0 0 440 336">
        <path class="leaf" d="M365.44,135.22A26,26,0,0,0,363.92,125a32.66,32.66,0,0,1,13.44,1,1.16,1.16,0,0,0,1.29-.5c2.4-3.39-4.09-7.76-6.37-9.37a30.84,30.84,0,0,0-12.88-5.19c10.86-1.36,17.76-5.06,26.41-9.72a5.12,5.12,0,1,0-1-3,5.22,5.22,0,0,0,.36,1.9c-7.05,3.62-12.84,6.52-21.5,7.81a17,17,0,0,0,5.52-4.3c3.49-4.33,3.36-10,3.07-15.3a1.46,1.46,0,0,0-2.44-1.1c-4.89,4.3-11.93,6.64-15.41,12.47a10.2,10.2,0,0,0-1,9c-14.52,0-29.63-4-43.31-7.46A69.78,69.78,0,0,0,332,91.67a15.45,15.45,0,0,0,14.21,4.8,1.56,1.56,0,0,0,1.22-2,1.37,1.37,0,0,0,.45-1.73,6.6,6.6,0,0,0-.93-1.32l.89-.2a1.51,1.51,0,0,0,.44-2.73,36.4,36.4,0,0,0-6.73-2.84c1.32-1.51,3.53-3.17,1.42-5.05-1.71-1.54-4.88.13-7.11,1.36a12.11,12.11,0,0,0-2.05-4.17l-1.07-1.42c-.1.1-1.21,1.48-1.31,1.59-2.68,3-2.84,7.62-1.07,11.25a87.27,87.27,0,0,1-15.55,7.51,11.09,11.09,0,0,0,1.79-2c3-4.18,1.21-9.58,3.91-13.71a1.61,1.61,0,0,0-1.7-2.38c-9.57,1-18.22,10.6-16.56,20.47-10.8-2.71-21.56-5.61-32.36-8.34L256.8,87.68l-1.63-.38a68,68,0,0,0,20.32-7.8q3.43-1.94,6.94-4.3a22.14,22.14,0,0,1,11.44-3,13.38,13.38,0,0,1,5.79,1.43,4.47,4.47,0,1,0,6.49-2.55,4.43,4.43,0,0,0-4.58.08,16.22,16.22,0,0,0-7.62-2,22.42,22.42,0,0,0-3.49.19,183.48,183.48,0,0,0,19.79-18.62A7,7,0,1,0,308,48.58c-11.9,12.83-23.25,22.19-34,28.22-10.26,5.77-19.93,8.5-28.94,8.32l-.39-.08c-17-3.36-34.38-5.43-51.53-4.68a163.09,163.09,0,0,0,17.64-7.76,1.58,1.58,0,0,0,.44,2.11c11.59,8.18,26.74,1.56,36.67-6a1.54,1.54,0,0,0-.61-2.58,40.65,40.65,0,0,0-27.7,1.35c2.48-1.57,4.9-3.22,7.22-5,8.72-4.38,17.42-6.76,27.19-6.12a4.81,4.81,0,1,0,0-2.9,49.7,49.7,0,0,0-19.92,2.75,82.39,82.39,0,0,0,8.71-9.86,18.42,18.42,0,0,0,15.87-2.11c6.34-4.3,9-12.12,15.85-15.85,1.11-.61,1.12-2.67-.29-2.93-7.53-1.41-16,.26-22.13,5a89,89,0,0,0,3.48-9.07,31.08,31.08,0,0,0,7.84,1.14c2.19,0,5.15,0,6.61-2a4.38,4.38,0,0,0-.08-5c-1.2-1.79-3.25-2.33-5.27-2.48,2.13-2.38,5.26-5.12,2.38-7.9-2.47-2.39-6.1.3-8.65,2.32a10.82,10.82,0,0,0-2.54-7,1.77,1.77,0,0,0-2.46-.06,9.59,9.59,0,0,0-2.94,6.09,13.68,13.68,0,0,0-6.36-2.32,1.68,1.68,0,0,0-1.67,2,16.69,16.69,0,0,0,10,12.76c.88.39,1.55-1.1.69-1.55A13.63,13.63,0,0,1,246,8.29a13.52,13.52,0,0,1,5.8,4.52c1.24,1.61,4.11-.44,2.93-2.14a14.75,14.75,0,0,0-1.15-1.34,6.7,6.7,0,0,1,.79-4.63,14.14,14.14,0,0,1,.52,4.7c0,1.43,2.17,2.42,2.92.88v0c.05,0,.1,0,.15,0,1.33-.68,2.67-1.33,4-2.07a8.65,8.65,0,0,1,1.61-.88c1.18-.3,2.24.31,1.53,1.72-1.08,2.15-3.65,2.87-4.24,5.41a1.26,1.26,0,0,0,2.42.73,2.26,2.26,0,0,1,.13-.2,1.23,1.23,0,0,0,.77.43c1.33.19,3.68.65,3.9,2.35.29,2.23-3.86,1.87-5,1.82a25.17,25.17,0,0,1-7.71-1.63c-1.66-.63-2.63,1.56-1.72,2.67a85.92,85.92,0,0,1-16.52,25.06,26.89,26.89,0,0,0-4.83-23.47,1.77,1.77,0,0,0-2.51-.06c-7.65,8.49-7.06,24,.89,32.47C215.17,67.45,192.49,76.84,172,83.15c.52-4.39,18.33-27.63,21.86-31.76.2-.24.52-.7.52-.7,6.26,2.56,13-1,18.05-4.77a1.56,1.56,0,0,0,.59-1.76,1.72,1.72,0,0,0-.91-2.63,17.18,17.18,0,0,0-5.38-.22c.48-1.07.95-2.14,1.42-3.22.63-1.42-1.22-2.55-2.4-2-1.88,1-3.74,1.92-5.61,2.88.25-1.61.51-3.23.76-4.84.18-1.17-1.27-1.8-2.16-1.35a12.5,12.5,0,0,0-4.61,3.89c-.66-2.14-1.38-4.27-2.1-6.39a1.26,1.26,0,0,0-2.34-.17,1.13,1.13,0,0,0-1.28.73c-2,5.6-1.83,14.19,3.21,18.24a132.11,132.11,0,0,0-10.3,13.36c.09-.39.21-.76.28-1.16a26.48,26.48,0,0,0-1.71-14.53,1.56,1.56,0,0,0-2.11-.63c-9.73,6.76-14,20.61-8.11,31,0,0,1.24,5.64-1.42,7.44-6.81,1.93-22.82,6.89-29.64,8.8,1.56-2.11,6-8.86,6.51-11.47.83-4.4-.48-9.57,3.13-13,1.3-1.24.11-3.8-1.73-3.24-12.63,3.82-28.4,12.91-22.64,31.72-5.34,1.71-10.62,3.46-15.77,5.35a32.11,32.11,0,0,0-3.46,1.29c-25.91,9.9-48.36,23.76-59.51,53.3-1,2.59,3,3.72,4.06,1.23,7.75-18.9,20.37-31.68,35.7-41.05a164.68,164.68,0,0,1,25.73-12.28c6.59-1.68,13.7-1.2,21.25,1.54,2.07,1,3.79,3.07,5.14,6.31a40.14,40.14,0,0,1,2.44,9.57,5.3,5.3,0,1,0,3.06-.35,43.61,43.61,0,0,0-2.65-10.41c-.3-.7-.61-1.36-.94-2,8.66,4.57,17.86,11.91,27.52,22.16a7,7,0,1,0,5.73-3,6.91,6.91,0,0,0-3.45.91c-12.19-12.95-23.74-21.41-34.49-25.63a45.35,45.35,0,0,0-12.18-3c2.43-.76,4.6-1.41,6.46-2,13-3.91,26.49-7.25,39.62-11a23.41,23.41,0,0,0,12.71,16.3,22.29,22.29,0,0,0,9.71,2.34c5.16,0,10.89-2.86,15.42.72,1.11.88,3.08-.5,2.57-1.85-5-13.54-15.32-18.25-27.88-20.71a202.2,202.2,0,0,1,43.86.69s0,0,0,0c.3.22.57.47.88.69-5.1,2.12-6.77,8-6.38,13.45.6,8.47,4.88,15.87,11.21,21.34,1.06.91,3,.49,3-1.14,0-3.87,3-6.62,3.7-10.27a16.82,16.82,0,0,0-.8-8.2,31.79,31.79,0,0,0-4.83-10.22,63.4,63.4,0,0,1,19.84,34.22,1.46,1.46,0,0,0,1,1.15c-5.52.45-10.2,4.79-12.74,9.72a1.34,1.34,0,0,0,.3,1.6,1.43,1.43,0,0,0,1.41,1.5,16.79,16.79,0,0,0,4.57-.82,14.39,14.39,0,0,0,.4,4.18,1.57,1.57,0,0,0,2.59.78,14.37,14.37,0,0,0,2.57-3.91,33.39,33.39,0,0,0,3.78,3.84,1.53,1.53,0,0,0,2.6-1,17.38,17.38,0,0,0-.28-4.53,30.52,30.52,0,0,0,6.86,3.07,1,1,0,0,0,1.19-1,1.64,1.64,0,0,0,.6-1.25c.23-5.78-4.95-10.78-10.3-12a12,12,0,0,0-2.35-.28,1.52,1.52,0,0,0,1-1.8,68.78,68.78,0,0,0-3.12-10.33,21,21,0,0,0,1.82,1.41c5.72,3.71,12.21,3.12,18.52,5,1,.31,2.42-.71,2-1.87-4.38-12-16.16-23.36-29.61-18.1a58.13,58.13,0,0,0-14.87-14.76c17,2.29,34.07,6.18,51.27,10.58.36,6,1.73,12.26,5.57,17.06,4.95,6.2,14.14,6.46,18.64,12.87.92,1.32,3.42,1.2,3.39-.79-.18-10.21-5.15-20-13.54-25.35,14.48,4.09,30.54,8.81,46.18,10.26,0,0,0,0,0,.06a17,17,0,0,0,4.23,15c4.81,5,14.67,3.79,18.07,9.73a1.37,1.37,0,0,0,2.55-.6Zm25.83-13.31a2.07,2.07,0,1,1,2.06-2.07,2.07,2.07,0,0,1-2.06,2.07Zm-60.67,5a4.27,4.27,0,1,1,4.24-4.27A4.27,4.27,0,0,1,330.6,127Zm50.19-12.43a3.26,3.26,0,1,1,3.25-3.26,3.26,3.26,0,0,1-3.25,3.26ZM310.94,62.46a3.35,3.35,0,1,1,3.33-3.34,3.34,3.34,0,0,1-3.33,3.34ZM297.82,50.27a4,4,0,1,1,4-4,4,4,0,0,1-4,4Zm-113,86a2.45,2.45,0,1,1-2.44,2.45,2.45,2.45,0,0,1,2.44-2.45Zm58.33-68h0c-8.08,5.22-16.27,7.34-25.27,5.27,3-.51,6-.78,8.89-1.11,1.33-.16.84-2.16-.47-2-3.59.36-7.32,1.06-11,1.31,8.91-4.2,18.3-5.64,27.85-3.44ZM231.48,39.33h0a1.42,1.42,0,0,0-2.83-.1,50.21,50.21,0,0,0,.49,8.07,20.83,20.83,0,0,1,1.77-20.83,23.65,23.65,0,0,1,1.52,23.42,44.57,44.57,0,0,1-1-10.56ZM255.9,38h0c1.42-1,.27-3.29-1.29-2.41-2.53,1.4-5,2.9-7.48,4.41.25-.4.49-.83.73-1.24,5.85-6.5,12.8-10.94,21.54-10.6-7.65,6.42-11.93,17.16-22.91,15.85,3.16-2,6.33-3.92,9.41-6Zm-60.81,8.65h0c-4.42-2.21-4.79-7.76-4.64-12.5.56,2.15,1.15,4.29,1.89,6.38a1.41,1.41,0,0,0,2.7.09,9.61,9.61,0,0,1,2.39-3.36c-.23,1.36-.47,2.71-.7,4.07a1.55,1.55,0,0,0,2.18,1.79c1.42-.64,2.82-1.33,4.23-2l-.76,1.67c-.55,1.22.28,3,1.85,2.59a14.67,14.67,0,0,1,2-.36c-3.54,1.92-7.45,3.48-11.17,1.63Zm-17.21,3.67h0a31.77,31.77,0,0,1,.56,16.24c-1.29,1.8-2.6,3.57-4,5.28.26-3.83.57-7.65,1.09-11.46.22-1.53-2.2-1.62-2.39-.09a116.25,116.25,0,0,0-1,14.2,2.09,2.09,0,0,0-.14.17c-2.81-8.91-1.33-17.56,5.8-24.34ZM134.21,80.85h0c-2.89,4.08-5.81,8.14-8.59,12.29-.73-11,7.64-18.09,17.22-22.07a40.94,40.94,0,0,0-.89,7.8c-.35,4.75-3.49,12.28-6.81,15.13-2.76.8-6.47,2.11-9.2,2.94,2.86-3.62,7.56-11.13,10.35-14.81.93-1.24-1.17-2.56-2.08-1.28Zm69.24,22h0c-4-.81-8.38.71-12.75.7-9,0-16.46-6.33-19.28-14.5A87.89,87.89,0,0,0,186,95.48c1.59.53,2.33-2,.75-2.49a76.88,76.88,0,0,1-13.53-6l1-.29a.94.94,0,0,0,.23.1c12,2.6,23.07,5.13,29,16.1Zm51.2,28h0c3.9.76,6.16,3.58,7.4,7a72.65,72.65,0,0,1-6.47-4c-1.28-.93-2.5.73-2,1.92a15.32,15.32,0,0,1,1,3.39,32.27,32.27,0,0,1-2.44-3c-.68-.95-2.49-1.17-2.81.29-.06.28-.19.49-.26.75v0a1.59,1.59,0,0,0-2.23-1.84,17.6,17.6,0,0,1-3.49,1.06c3.1-3.22,6.55-6.47,11.36-5.53Zm14.69-13.45h0c-3.79-.7-7.7-.92-11.29-2.32a22.42,22.42,0,0,1-10.69-9c2.73,1.52,5.45,3.08,8.16,4.62,1,.57,1.92-.94.92-1.52-3.26-1.88-6.55-3.74-9.78-5.69,10.27-1.3,18.33,4.67,22.68,13.87Zm-39-14.13h0a95.07,95.07,0,0,1-2.34-11c3.39,3.61,5.45,9.66,5.7,14.11.21,3.86-2.07,6.81-3.22,10.18-6-6.84-12.42-20-5.55-26.53a60.2,60.2,0,0,0,2.91,13.78c.54,1.52,2.94,1.06,2.5-.58Zm73.67,18h0a44.6,44.6,0,0,0-7.64-4.4c-6-3-9-7.45-10.81-12.92,2.38,2.9,4.79,5.77,7.34,8.51,1.18,1.27,2.9-.5,1.9-1.82-3.16-4.21-6.46-8.31-9.68-12.46l.77,1c9.34,4.45,16.46,12.11,18.12,22.09Zm6-29.67h0c-1.75,2.14-3.41,4.34-5.08,6.53.62-7.2,4.67-13.55,11.59-15.71-.55,2.11-.62,4.28-1.07,6.57-.75,3.79-3.3,6.14-6.36,7.88.95-1.24,1.91-2.46,2.82-3.73s-1-2.63-1.9-1.54Zm22.87-11h0a12.45,12.45,0,0,1,.61,3.4,1.39,1.39,0,0,0,2,1.26,30.35,30.35,0,0,1,4-1.62c0-.32-1.52,2.33-1.54,2.41a1.46,1.46,0,0,0,1,1.81,37.57,37.57,0,0,1,4.11,1.42l-.84.2a1.47,1.47,0,0,0,.27,2.89,4.49,4.49,0,0,1,1.86.61c-3.59-.28-7.15-.8-9.7-3.74a2.2,2.2,0,0,0-.14-.18,1.51,1.51,0,0,0-.88-1.29,9.2,9.2,0,0,1-.75-7.17Zm22.27,30.7c1.83-.18,17.48,6.28,19.74,9.91a16.6,16.6,0,0,1,1.82,2.11l-1.31-.39c-1.3,0-3-.71-4.34-.89a31.5,31.5,0,0,0-8.4.07,25.81,25.81,0,0,0-3.19-4.84,72.5,72.5,0,0,0,7.21,3.5c1.14.47,1.67-.88.65-1.5-4.78-2.9-10-5.4-15-7.82.93,0,1.87-.09,2.8-.15Zm.67-6.56h0c.68-6.19,8-11.13,13.65-14.19.11,4-.15,8.06-2.75,11.24s-6,4.33-9.55,5.55c2-3.26,4.21-6,8.05-7.91.75-.38.14-1.42-.61-1.13a20.44,20.44,0,0,0-8.79,6.44Zm.49,23.69h0c-7-2.28-12.39-6.22-12.76-13.37a68,68,0,0,1,7.53,8.66c.9,1.22,3-.29,2.16-1.57A53.4,53.4,0,0,0,344.87,112c9.6,2.9,16.71,9.2,17.73,19.5A19.23,19.23,0,0,0,356.32,128.45Z"/>
        <path class="woshe" d="M46.27,262.7l13-42h3.87L46.6,274,31.68,234.93,16.61,274,0,220.65H3.79l13.14,42.21,14.75-38.1L46.27,262.7Zm91.16,11a26.66,26.66,0,0,0,23-13.4,26.73,26.73,0,0,0,3.54-13.4,27,27,0,0,0-3.54-13.48,26.15,26.15,0,0,0-9.68-9.77,26.69,26.69,0,0,0-26.6,0,26.15,26.15,0,0,0-9.68,9.77,27,27,0,0,0-3.54,13.48,26.73,26.73,0,0,0,3.54,13.4,26.66,26.66,0,0,0,23,13.4Zm0-49.89a22.52,22.52,0,0,1,11.45,3.07,23.68,23.68,0,0,1,8.3,8.4,23.11,23.11,0,0,1,3.06,11.62,23.08,23.08,0,0,1-11.36,19.94,22.45,22.45,0,0,1-22.9,0,22.46,22.46,0,0,1-8.3-8.4,21.92,21.92,0,0,1-3.15-11.54,22.4,22.4,0,0,1,3.15-11.62,23.68,23.68,0,0,1,8.3-8.4,22.52,22.52,0,0,1,11.45-3.07Zm109,23.9a16.31,16.31,0,0,1,5.81,5.08,11.38,11.38,0,0,1,2,6.54,11.54,11.54,0,0,1-1.45,5.65,13.79,13.79,0,0,1-4.19,4.76,22.2,22.2,0,0,1-13.14,4,23.11,23.11,0,0,1-7.1-1.05,21.31,21.31,0,0,1-6-3,13.27,13.27,0,0,1-5.56-8.31l3.46-1.94a9.07,9.07,0,0,0,4.36,7.27,15.86,15.86,0,0,0,4.91,2.42,20.71,20.71,0,0,0,6,.88,18,18,0,0,0,10.88-3.3c2.82-2.1,4.27-4.61,4.27-7.43a7.71,7.71,0,0,0-1.53-4.68,13.59,13.59,0,0,0-4.43-3.72c-1.77-.88-4.92-1.61-9.51-2.17-.41-.09-1.7-.25-4-.65a23,23,0,0,1-6.05-1.78,15.7,15.7,0,0,1-6.21-5.16,11.31,11.31,0,0,1-2.26-6.86,10.8,10.8,0,0,1,1.54-5.65,14.68,14.68,0,0,1,4.19-4.6,21,21,0,0,1,6-3,22.81,22.81,0,0,1,7.1-1.05,22.2,22.2,0,0,1,13.14,4,13,13,0,0,1,5.48,8.23l-3.47,1.94a8.34,8.34,0,0,0-1.12-3.88,12.43,12.43,0,0,0-3.15-3.39,16.87,16.87,0,0,0-5-2.5,21.78,21.78,0,0,0-11.77,0,15.18,15.18,0,0,0-5,2.5,12.65,12.65,0,0,0-3.23,3.39,7.91,7.91,0,0,0-1.13,4,8.15,8.15,0,0,0,1.86,4.92,11.75,11.75,0,0,0,4.59,3.87,14,14,0,0,0,3.79,1.14c1.37.24,3.06.56,5.24.8.4.08,1.29.16,2.82.41a35.38,35.38,0,0,1,4.36.88,16.14,16.14,0,0,1,3.54,1.38Zm98.33,25.42h3.63V220.65h-3.63V245h-31V220.65h-3.71v52.46h3.71V248.74h31v24.37Zm95.27,0v-3.79H409.69V248.74h23.62V245H409.69V224.36H440v-3.71H406.06v52.46Z"/>
        <path class="floral" d="M71.74,335.57V323.88H83.12v-1.83H71.74V312.1H86.29v-1.79H70v25.26Zm176.55-12.24a8.06,8.06,0,0,1,2.77,2.47,5.52,5.52,0,0,1,1,3.13,5.77,5.77,0,0,1-.69,2.74,7,7,0,0,1-2,2.27,10.48,10.48,0,0,1-6.3,1.95,11.35,11.35,0,0,1-3.41-.51,10,10,0,0,1-2.9-1.44,6.46,6.46,0,0,1-2.67-4l1.66-.93a4.41,4.41,0,0,0,2.09,3.49,7.18,7.18,0,0,0,2.36,1.19,10,10,0,0,0,2.87.41,8.48,8.48,0,0,0,5.22-1.6,4.37,4.37,0,0,0,2.05-3.57,3.81,3.81,0,0,0-.75-2.26,6.27,6.27,0,0,0-2.11-1.79,15,15,0,0,0-4.57-1l-2-.32a10.38,10.38,0,0,1-2.89-.85,7.65,7.65,0,0,1-3-2.47,5.59,5.59,0,0,1-1.09-3.32,5.35,5.35,0,0,1,.72-2.7,7,7,0,0,1,2-2.24,9.7,9.7,0,0,1,2.9-1.43A11.35,11.35,0,0,1,243,310a10.54,10.54,0,0,1,6.3,1.94,6.33,6.33,0,0,1,2.64,4l-1.67.93a3.9,3.9,0,0,0-.56-1.87,5.67,5.67,0,0,0-1.49-1.63,7.79,7.79,0,0,0-2.4-1.18,9.43,9.43,0,0,0-2.82-.41,9.73,9.73,0,0,0-2.85.41,7.37,7.37,0,0,0-2.38,1.18,5.73,5.73,0,0,0-1.55,1.65,3.67,3.67,0,0,0-.54,1.89,4,4,0,0,0,.89,2.39,6.26,6.26,0,0,0,2.21,1.85,7,7,0,0,0,1.8.56c.66.11,1.5.24,2.53.37l1.36.19a19.31,19.31,0,0,1,2.09.43,7.36,7.36,0,0,1,1.7.66Zm109,12.51a12.39,12.39,0,0,0,6.38-1.72,13,13,0,0,0,0-22.35,12.65,12.65,0,0,0-12.77,0,13,13,0,0,0,0,22.35,12.4,12.4,0,0,0,6.39,1.72Zm0-24a10.48,10.48,0,0,1,5.49,1.49,11.12,11.12,0,0,1,4,4,11.18,11.18,0,0,1-4,15.2,10.82,10.82,0,0,1-11,0,11.15,11.15,0,0,1-4-4,11.19,11.19,0,0,1,0-11.16,11.3,11.3,0,0,1,4-4,10.54,10.54,0,0,1,5.5-1.49Zm-19,23.74V310.31h-1.74v25.26Zm-20.24,0a12.13,12.13,0,0,0,4.95-1,11.27,11.27,0,0,0,3.95-2.85,12.85,12.85,0,0,0,2.44-4.05,13.87,13.87,0,0,0,0-9.56,12.4,12.4,0,0,0-2.44-4,11.44,11.44,0,0,0-3.95-2.82,12.29,12.29,0,0,0-4.95-1h-7.24v25.26Zm-5.5-23.47H318a9.91,9.91,0,0,1,7.62,3.22,10.27,10.27,0,0,1,2.07,3.44,12.38,12.38,0,0,1,0,8.32,10.08,10.08,0,0,1-2.07,3.44,9.7,9.7,0,0,1-7.62,3.3h-5.5V312.1Zm-18.42,23.74a9.33,9.33,0,0,0,3.72-.75,9.7,9.7,0,0,0,3.09-2.16,8.75,8.75,0,0,0,2.07-3.11,10,10,0,0,0,.72-3.77V310.31h-1.74v15.74a8.16,8.16,0,0,1-.6,3.11,7.74,7.74,0,0,1-1.68,2.57,8.16,8.16,0,0,1-2.56,1.73,7.8,7.8,0,0,1-6,0,8.11,8.11,0,0,1-2.55-1.73,7.59,7.59,0,0,1-1.68-2.57,8,8,0,0,1-.6-3.11V310.31h-1.75v15.74a10,10,0,0,0,.72,3.77,9,9,0,0,0,2.07,3.11,9.61,9.61,0,0,0,3.12,2.16,9.21,9.21,0,0,0,3.65.75Zm-15.21-25.53v1.79h-9.94v23.47h-1.78V312.1h-10v-1.79ZM212.8,335.57l-10.45-12.75h3.1a12.29,12.29,0,0,0,4.64-.73,6.33,6.33,0,0,0,2.29-1.89,4.5,4.5,0,0,0,1-2.78,4.63,4.63,0,0,0-.82-2.58,5.87,5.87,0,0,0-2.32-2,7.5,7.5,0,0,0-3.48-.78h-7v23.51h-1.74V310.31h8.79a9.53,9.53,0,0,1,3.32.57,7.93,7.93,0,0,1,2.71,1.61,6.88,6.88,0,0,1,1.72,2.29,6.07,6.07,0,0,1,.61,2.64,6.2,6.2,0,0,1-1.28,3.83,7.35,7.35,0,0,1-3,2.43,8,8,0,0,1-2.34.68,20.61,20.61,0,0,1-2.42.14l9.1,11.07Zm-21.47,0v-1.82H176.77v-9.91h11.34v-1.79H176.77V312.1h14.56v-1.79H175v25.26Zm-29.84-5,6.23-20.25h1.86L161.64,336l-7.16-18.81L147.24,336l-8-25.69h1.82l6.31,20.33,7.08-18.35,7,18.27Zm-37.42,5.28a12.39,12.39,0,0,0,6.38-1.72,13,13,0,0,0,0-22.35,12.65,12.65,0,0,0-12.77,0,12.71,12.71,0,0,0-4.65,4.7,13,13,0,0,0,4.65,17.65,12.4,12.4,0,0,0,6.39,1.72Zm0-24a10.53,10.53,0,0,1,5.49,1.49,11.12,11.12,0,0,1,4,4,11.18,11.18,0,0,1-4,15.2,10.82,10.82,0,0,1-11,0,11.17,11.17,0,0,1-4-4,11.19,11.19,0,0,1,0-11.16,11.33,11.33,0,0,1,4-4,10.54,10.54,0,0,1,5.5-1.49Zm-15.45,23.74v-1.75H94.5V310.31H92.76v25.26Z"/>
    </symbol>
    <symbol id="logoText" viewBox="0 0 440 116">
        <path class="woshe" d="M46.27,42.7,59.25.65h3.87L46.6,54,31.68,14.93,16.61,54,0,.65H3.79L16.93,42.86,31.68,4.76,46.27,42.7Zm91.16,11a26.66,26.66,0,0,0,23-13.4A26.73,26.73,0,0,0,164,26.88a27,27,0,0,0-3.54-13.48,26.15,26.15,0,0,0-9.68-9.77,26.69,26.69,0,0,0-26.6,0,26.15,26.15,0,0,0-9.68,9.77,27,27,0,0,0-3.54,13.48,26.73,26.73,0,0,0,3.54,13.4,26.66,26.66,0,0,0,23,13.4Zm0-49.89a22.52,22.52,0,0,1,11.45,3.07,23.68,23.68,0,0,1,8.3,8.4,23.11,23.11,0,0,1,3.06,11.62,22.6,22.6,0,0,1-3.06,11.54,22.46,22.46,0,0,1-8.3,8.4,22.45,22.45,0,0,1-22.9,0,22.46,22.46,0,0,1-8.3-8.4,21.92,21.92,0,0,1-3.15-11.54,22.4,22.4,0,0,1,3.15-11.62,23.68,23.68,0,0,1,8.3-8.4,22.52,22.52,0,0,1,11.45-3.07Zm109,23.9a16.31,16.31,0,0,1,5.81,5.08,11.38,11.38,0,0,1,2,6.54A11.54,11.54,0,0,1,252.77,45a13.79,13.79,0,0,1-4.19,4.76,22.2,22.2,0,0,1-13.14,4,23.11,23.11,0,0,1-7.1-1,21.31,21.31,0,0,1-6-3,13.27,13.27,0,0,1-5.56-8.31l3.46-1.94a9.07,9.07,0,0,0,4.36,7.27,15.86,15.86,0,0,0,4.91,2.42,20.71,20.71,0,0,0,6,.88,18,18,0,0,0,10.88-3.3c2.82-2.1,4.27-4.61,4.27-7.43a7.71,7.71,0,0,0-1.53-4.68,13.59,13.59,0,0,0-4.43-3.72c-1.77-.88-4.92-1.61-9.51-2.17-.41-.09-1.7-.25-4-.65A23,23,0,0,1,225,26.31a15.7,15.7,0,0,1-6.21-5.16,11.31,11.31,0,0,1-2.26-6.86,10.8,10.8,0,0,1,1.54-5.65A14.68,14.68,0,0,1,222.3,4a21,21,0,0,1,6-3,22.81,22.81,0,0,1,7.1-1,22.2,22.2,0,0,1,13.14,4,13,13,0,0,1,5.48,8.23l-3.47,1.94a8.34,8.34,0,0,0-1.12-3.88,12.43,12.43,0,0,0-3.15-3.39,16.87,16.87,0,0,0-5-2.5,21.78,21.78,0,0,0-11.77,0,15.18,15.18,0,0,0-5,2.5,12.65,12.65,0,0,0-3.23,3.39,7.91,7.91,0,0,0-1.13,4,8.15,8.15,0,0,0,1.86,4.92,11.75,11.75,0,0,0,4.59,3.87,14,14,0,0,0,3.79,1.14c1.37.24,3.06.56,5.24.8.4.08,1.29.16,2.82.41a35.38,35.38,0,0,1,4.36.88,16.14,16.14,0,0,1,3.54,1.38Zm98.33,25.42h3.63V.65h-3.63V25h-31V.65h-3.71V53.11h3.71V28.74h31V53.11Zm95.27,0V49.32H409.69V28.74h23.62V25H409.69V4.36H440V.65H406.06V53.11Z"/>
        <path class="floral" d="M71.74,115.57V103.88H83.12v-1.83H71.74v-10H86.29V90.31H70v25.26Zm176.55-12.24a8.06,8.06,0,0,1,2.77,2.47,5.52,5.52,0,0,1,1,3.13,5.77,5.77,0,0,1-.69,2.74,7,7,0,0,1-2,2.27,10.48,10.48,0,0,1-6.3,2,11.35,11.35,0,0,1-3.41-.51,10,10,0,0,1-2.9-1.44,6.46,6.46,0,0,1-2.67-4l1.66-.93a4.41,4.41,0,0,0,2.09,3.49,7.18,7.18,0,0,0,2.36,1.19,10,10,0,0,0,2.87.41,8.48,8.48,0,0,0,5.22-1.6,4.37,4.37,0,0,0,2.05-3.57,3.81,3.81,0,0,0-.75-2.26,6.27,6.27,0,0,0-2.11-1.79,15,15,0,0,0-4.57-1l-2-.32a10.38,10.38,0,0,1-2.89-.85,7.65,7.65,0,0,1-3-2.47A5.59,5.59,0,0,1,234,96.88a5.35,5.35,0,0,1,.72-2.7,7,7,0,0,1,2-2.24,9.7,9.7,0,0,1,2.9-1.43A11.35,11.35,0,0,1,243,90a10.54,10.54,0,0,1,6.3,1.94,6.33,6.33,0,0,1,2.64,4l-1.67.93a3.9,3.9,0,0,0-.56-1.87,5.67,5.67,0,0,0-1.49-1.63,7.79,7.79,0,0,0-2.4-1.18,9.43,9.43,0,0,0-2.82-.41,9.73,9.73,0,0,0-2.85.41,7.37,7.37,0,0,0-2.38,1.18A5.73,5.73,0,0,0,236.25,95a3.67,3.67,0,0,0-.54,1.89,4,4,0,0,0,.89,2.39,6.26,6.26,0,0,0,2.21,1.85,7,7,0,0,0,1.8.56c.66.11,1.5.24,2.53.37l1.36.19a19.31,19.31,0,0,1,2.09.43,7.36,7.36,0,0,1,1.7.66Zm109,12.51a12.39,12.39,0,0,0,6.38-1.72,13,13,0,0,0,0-22.35,12.65,12.65,0,0,0-12.77,0,13,13,0,0,0,0,22.35,12.4,12.4,0,0,0,6.39,1.72Zm0-24a10.48,10.48,0,0,1,5.49,1.49,11.12,11.12,0,0,1,4,4,11.18,11.18,0,0,1-4,15.2,10.82,10.82,0,0,1-11,0,11.15,11.15,0,0,1-4-4,11.19,11.19,0,0,1,0-11.16,11.3,11.3,0,0,1,4-4,10.54,10.54,0,0,1,5.5-1.49Zm-19,23.74V90.31h-1.74v25.26Zm-20.24,0a12.13,12.13,0,0,0,4.95-1,11.27,11.27,0,0,0,3.95-2.85,12.85,12.85,0,0,0,2.44-4,13.87,13.87,0,0,0,0-9.56,12.4,12.4,0,0,0-2.44-4,11.44,11.44,0,0,0-3.95-2.82,12.29,12.29,0,0,0-4.95-1h-7.24v25.26Zm-5.5-23.47H318a9.91,9.91,0,0,1,7.62,3.22,10.27,10.27,0,0,1,2.07,3.44,12.38,12.38,0,0,1,0,8.32,10.08,10.08,0,0,1-2.07,3.44,9.7,9.7,0,0,1-7.62,3.3h-5.5V92.1Zm-18.42,23.74a9.33,9.33,0,0,0,3.72-.75,9.7,9.7,0,0,0,3.09-2.16,8.75,8.75,0,0,0,2.07-3.11,10,10,0,0,0,.72-3.77V90.31h-1.74v15.74a8.16,8.16,0,0,1-.6,3.11,7.74,7.74,0,0,1-1.68,2.57,8.16,8.16,0,0,1-2.56,1.73,7.8,7.8,0,0,1-6,0,8.11,8.11,0,0,1-2.55-1.73,7.59,7.59,0,0,1-1.68-2.57,8,8,0,0,1-.6-3.11V90.31h-1.75v15.74a10,10,0,0,0,.72,3.77,9,9,0,0,0,2.07,3.11,9.61,9.61,0,0,0,3.12,2.16,9.21,9.21,0,0,0,3.65.75ZM278.86,90.31V92.1h-9.94v23.47h-1.78V92.1h-10V90.31ZM212.8,115.57l-10.45-12.75h3.1a12.29,12.29,0,0,0,4.64-.73,6.33,6.33,0,0,0,2.29-1.89,4.5,4.5,0,0,0,1-2.78,4.63,4.63,0,0,0-.82-2.58,5.87,5.87,0,0,0-2.32-2,7.5,7.5,0,0,0-3.48-.78h-7v23.51h-1.74V90.31h8.79a9.53,9.53,0,0,1,3.32.57,7.93,7.93,0,0,1,2.71,1.61,6.88,6.88,0,0,1,1.72,2.29,6.07,6.07,0,0,1,.61,2.64,6.2,6.2,0,0,1-1.28,3.83,7.35,7.35,0,0,1-3,2.43,8,8,0,0,1-2.34.68,20.61,20.61,0,0,1-2.42.14l9.1,11.07Zm-21.47,0v-1.82H176.77v-9.91h11.34v-1.79H176.77v-10h14.56V90.31H175v25.26Zm-29.84-5,6.23-20.25h1.86L161.64,116l-7.16-18.81L147.24,116l-8-25.69h1.82l6.31,20.33,7.08-18.35,7,18.27Zm-37.42,5.28a12.39,12.39,0,0,0,6.38-1.72,13,13,0,0,0,0-22.35,12.65,12.65,0,0,0-12.77,0,12.71,12.71,0,0,0-4.65,4.7,13,13,0,0,0,4.65,17.65,12.4,12.4,0,0,0,6.39,1.72Zm0-24a10.53,10.53,0,0,1,5.49,1.49,11.12,11.12,0,0,1,4,4,11.18,11.18,0,0,1-4,15.2,10.82,10.82,0,0,1-11,0,11.17,11.17,0,0,1-4-4,11.19,11.19,0,0,1,0-11.16,11.33,11.33,0,0,1,4-4,10.54,10.54,0,0,1,5.5-1.49Zm-15.45,23.74v-1.75H94.5V90.31H92.76v25.26Z"/>
    </symbol>
</svg>