<svg xmlns="http://www.w3.org/2000/svg">
    <symbol id="map-pin" viewBox="0 0 320 512">
        <path d="M128 316.9v143.3c0 4.967 1.156 9.866 3.379 14.31l14.31 28.62c5.896 11.79 22.72 11.79 28.62 0l14.31-28.62C190.8 470.1 192 465.2 192 460.2V316.9C181.6 318.9 170.9 320 160 320S138.4 318.9 128 316.9zM160-.0002c-79.53 0-144 64.47-144 144S80.47 288 160 288s144-64.47 144-144S239.5-.0002 160-.0002zM160 79.1c-35.28 0-64 28.72-64 64c0 8.844-7.156 16-16 16S64 152.8 64 143.1c0-52.94 43.06-96 96-96c8.844 0 16 7.156 16 15.1S168.8 79.1 160 79.1z"/>
    </symbol>
    <symbol id="mobile" viewBox="0 0 384 512">
        <path d="M320 0H64C37.5 0 16 21.5 16 48v416C16 490.5 37.5 512 64 512h256c26.5 0 48-21.5 48-48v-416C368 21.5 346.5 0 320 0zM240 447.1C240 456.8 232.8 464 224 464H159.1C151.2 464 144 456.8 144 448S151.2 432 160 432h64C232.8 432 240 439.2 240 447.1z"/>
    </symbol>
</svg>